# Blender v2.82 (sub 7) OBJ File: 'Pawn.blend'
# www.blender.org
mtllib Pawn.mtl
o Chess_Pawn
v -0.000000 -3.579690 -1.408680
v 0.996087 -3.579690 -0.996087
v 1.408680 -3.579690 -0.000000
v 0.996087 -3.579690 0.996087
v -0.000001 -3.579690 1.408680
v -0.996088 -3.579690 0.996087
v -1.408681 -3.579690 -0.000001
v -0.996086 -3.579690 -0.996089
v -0.000000 -3.095831 -1.259046
v 0.890280 -3.095831 -0.890280
v 1.259046 -3.095831 -0.000000
v 0.890280 -3.095831 0.890280
v -0.000001 -3.095831 1.259046
v -0.890281 -3.095831 0.890280
v -1.259046 -3.095831 -0.000001
v -0.890279 -3.095831 -0.890281
v -0.000000 -2.814464 -1.348192
v 0.953315 -2.814464 -0.953316
v 1.348192 -2.814464 -0.000000
v 0.953315 -2.814464 0.953316
v -0.000001 -2.814464 1.348192
v -0.953317 -2.814464 0.953315
v -1.348192 -2.814464 -0.000001
v -0.953315 -2.814464 -0.953317
v -0.000000 -3.325836 -1.472060
v 1.040903 -3.325836 -1.040903
v 1.472060 -3.325836 0.000000
v 1.040903 -3.325836 1.040904
v -0.000001 -3.325836 1.472060
v -1.040905 -3.325836 1.040903
v -1.472060 -3.325836 -0.000001
v -1.040902 -3.325836 -1.040905
v -0.000000 -2.477227 -0.928053
v 0.656233 -2.477227 -0.656233
v 0.928053 -2.477227 -0.000000
v 0.656233 -2.477227 0.656233
v -0.000000 -2.477227 0.928053
v -0.656233 -2.477227 0.656232
v -0.928054 -2.477227 -0.000001
v -0.656232 -2.477227 -0.656234
v -0.000000 -1.623521 0.486353
v -0.343903 -1.623521 0.343903
v 0.486353 -1.623521 -0.000000
v 0.343903 -1.623521 0.343903
v -0.343903 -1.623521 -0.343904
v 0.000000 -1.623521 -0.486353
v 0.343903 -1.623521 -0.343904
v -0.486353 -1.623521 -0.000001
v 0.000000 -0.960901 0.559549
v 0.559550 -0.960901 -0.000000
v -0.395661 -0.960900 -0.395662
v -0.395661 -0.960900 0.395661
v 0.395662 -0.960901 0.395661
v 0.000000 -0.960901 -0.559550
v 0.395662 -0.960901 -0.395662
v -0.559549 -0.960900 -0.000001
v 0.259018 -0.478853 0.259018
v 0.000000 -0.478853 0.366307
v 0.366307 -0.478853 -0.000000
v 0.259018 -0.478853 -0.259018
v 0.000000 -0.478853 -0.366307
v -0.259017 -0.478853 -0.259019
v -0.366307 -0.478853 -0.000001
v -0.259018 -0.478853 0.259018
v 0.375137 0.850152 -0.375137
v 0.530524 0.319629 -0.530523
v 0.375137 -0.210895 -0.375137
v 0.530524 0.850152 0.000000
v 0.750274 0.319628 0.000000
v 0.530524 -0.210895 0.000000
v 0.375137 0.850152 0.375137
v 0.530524 0.319629 0.530524
v 0.375137 -0.210895 0.375137
v 0.000000 0.850152 0.530524
v 0.000000 0.319629 0.750274
v 0.000000 -0.210894 0.530524
v 0.000000 1.069903 0.000000
v -0.375136 0.850152 0.375137
v -0.530523 0.319629 0.530524
v -0.375136 -0.210894 0.375137
v -0.530523 0.850152 0.000000
v -0.750273 0.319629 0.000000
v -0.530523 -0.210894 0.000000
v -0.375136 0.850152 -0.375136
v -0.530523 0.319629 -0.530523
v -0.375136 -0.210894 -0.375136
v 0.000000 0.850152 -0.530523
v 0.000000 0.319629 -0.750273
v 0.000000 -0.210894 -0.530523
v 0.248938 -0.380514 -0.248938
v 0.352052 -0.380514 0.000000
v 0.248938 -0.380514 0.248938
v 0.000000 -0.380514 0.352052
v -0.248938 -0.380514 0.248938
v -0.352051 -0.380514 0.000000
v -0.248938 -0.380514 -0.248938
v 0.000000 -0.380514 -0.352051
v 0.611566 -0.789799 0.611565
v 0.611391 -0.639146 0.611391
v -0.000000 -0.789799 0.864884
v -0.000000 -0.639146 0.864637
v 0.864885 -0.789799 -0.000000
v 0.864638 -0.639146 -0.000000
v 0.611566 -0.789799 -0.611566
v 0.611391 -0.639146 -0.611391
v 0.000000 -0.789799 -0.864884
v 0.000000 -0.639146 -0.864637
v -0.611564 -0.789799 -0.611566
v -0.611390 -0.639145 -0.611392
v -0.864884 -0.789799 -0.000001
v -0.864637 -0.639145 -0.000001
v -0.611566 -0.789799 0.611565
v -0.611391 -0.639145 0.611390
v -0.375136 0.850152 -0.375136
v -0.530523 0.319629 -0.530523
v 0.000000 0.850152 -0.530523
v 0.000000 0.319629 -0.750273
vn -0.3729 -0.2248 -0.9002
vn 0.7020 0.6501 0.2908
vn 0.2908 0.6501 0.7020
vn 0.3673 -0.2809 0.8867
vn 0.8867 -0.2809 0.3673
vn 0.6059 0.7549 0.2510
vn 0.2510 0.7549 0.6059
vn 0.3453 0.4313 0.8335
vn 0.3729 -0.2248 -0.9002
vn 0.9002 -0.2248 -0.3729
vn 0.9002 -0.2248 0.3729
vn 0.3729 -0.2248 0.9002
vn -0.3729 -0.2248 0.9002
vn -0.2908 0.6501 0.7020
vn -0.7020 0.6501 0.2908
vn 0.8867 -0.2809 -0.3673
vn -0.3673 -0.2809 -0.8867
vn -0.8867 -0.2809 0.3673
vn -0.6059 0.7549 -0.2510
vn 0.2510 0.7549 -0.6059
vn -0.6059 0.7549 0.2510
vn -0.8335 0.4313 0.3453
vn -0.3453 0.4313 -0.8335
vn -0.9002 -0.2248 0.3729
vn -0.7020 0.6501 -0.2908
vn -0.2908 0.6501 -0.7020
vn -0.3673 -0.2809 0.8867
vn -0.8867 -0.2809 -0.3673
vn -0.2510 0.7549 0.6059
vn -0.2510 0.7549 -0.6059
vn 0.8335 0.4313 -0.3453
vn 0.6059 0.7549 -0.2510
vn 0.3673 -0.2809 -0.8867
vn 0.7020 0.6501 -0.2908
vn 0.2908 0.6501 -0.7020
vn -0.9002 -0.2248 -0.3729
vn -0.0000 -1.0000 0.0000
vn -0.4791 -0.8550 0.1985
vn 0.1258 0.9444 -0.3038
vn -0.3038 0.9444 -0.1258
vn 0.3038 0.9444 0.1258
vn -0.1258 0.9444 0.3038
vn -0.3453 0.4313 0.8335
vn -0.8335 0.4313 -0.3453
vn 0.8335 0.4313 0.3453
vn 0.3453 0.4313 -0.8335
vn 0.9191 -0.1015 -0.3807
vn -0.9191 -0.1015 -0.3807
vn -0.9191 -0.1015 0.3807
vn 0.3807 -0.1015 -0.9191
vn 0.3807 -0.1015 0.9191
vn -0.3807 -0.1015 -0.9191
vn 0.9191 -0.1015 0.3807
vn -0.3807 -0.1015 0.9191
vn -0.1985 -0.8550 -0.4791
vn 0.4791 -0.8550 -0.1985
vn -0.1985 -0.8550 0.4791
vn -0.4791 -0.8550 -0.1985
vn 0.1985 -0.8550 -0.4791
vn 0.4791 -0.8550 0.1985
vn 0.1566 0.9125 -0.3780
vn 0.3574 0.3574 -0.8629
vn 0.3574 -0.3574 -0.8629
vn 0.8629 0.3574 -0.3574
vn 0.8629 -0.3574 -0.3574
vn 0.3780 0.9125 -0.1566
vn 0.8629 0.3574 0.3574
vn 0.8629 -0.3574 0.3574
vn 0.3780 0.9125 0.1566
vn 0.1566 0.9125 0.3780
vn 0.3574 0.3574 0.8629
vn 0.3574 -0.3574 0.8629
vn -0.3574 -0.3574 0.8629
vn -0.1566 0.9125 0.3780
vn -0.3574 0.3574 0.8629
vn -0.8629 -0.3574 0.3574
vn -0.3780 0.9125 0.1566
vn -0.8629 0.3574 0.3574
vn -0.8629 -0.3574 -0.3574
vn -0.3780 0.9125 -0.1566
vn -0.8629 0.3574 -0.3574
vn -0.3574 -0.3574 -0.8629
vn -0.1566 0.9125 -0.3780
vn 0.0000 0.0000 1.0000
vn 0.6625 -0.6970 0.2744
vn -0.2744 -0.6970 0.6625
vn -0.6625 -0.6970 0.2744
vn 0.2744 -0.6970 -0.6625
vn -0.6625 -0.6970 -0.2744
vn 0.6625 -0.6970 -0.2744
vn 0.2744 -0.6970 0.6625
vn -0.2744 -0.6970 -0.6625
vn -0.3793 0.1327 0.9157
vn -0.9157 0.1327 0.3793
vn -0.9157 0.1327 -0.3793
vn -0.3793 0.1327 -0.9157
vn 0.3793 0.1327 -0.9157
vn 0.9157 0.1327 -0.3793
vn 0.9157 0.1327 0.3793
vn 0.3793 0.1327 0.9157
vn 0.3827 0.0015 0.9239
vn 0.9239 0.0015 0.3827
vn 0.9239 0.0015 -0.3827
vn 0.1258 0.9444 0.3038
vn 0.3827 0.0015 -0.9239
vn -0.3038 0.9444 0.1258
vn -0.3827 0.0015 -0.9239
vn -0.1258 0.9444 -0.3038
vn -0.9239 0.0015 -0.3827
vn 0.3038 0.9444 -0.1258
vn -0.9239 0.0015 0.3827
vn -0.3827 0.0015 0.9239
vn 0.1985 -0.8550 0.4791
vn -0.3574 0.3574 -0.8629
usemtl None
s off
f 8//1 32//1 25//1 1//1
f 27//2 11//2 12//2 28//2
f 28//3 12//3 13//3 29//3
f 12//4 20//4 21//4 13//4
f 11//5 19//5 20//5 12//5
f 19//6 35//6 36//6 20//6
f 20//7 36//7 37//7 21//7
f 36//8 44//8 41//8 37//8
f 1//9 25//9 26//9 2//9
f 2//10 26//10 27//10 3//10
f 3//11 27//11 28//11 4//11
f 4//12 28//12 29//12 5//12
f 5//13 29//13 30//13 6//13
f 29//14 13//14 14//14 30//14
f 30//15 14//15 15//15 31//15
f 10//16 18//16 19//16 11//16
f 16//17 24//17 17//17 9//17
f 14//18 22//18 23//18 15//18
f 23//19 39//19 40//19 24//19
f 17//20 33//20 34//20 18//20
f 22//21 38//21 39//21 23//21
f 38//22 42//22 48//22 39//22
f 40//23 45//23 46//23 33//23
f 6//24 30//24 31//24 7//24
f 31//25 15//25 16//25 32//25
f 32//26 16//26 9//26 25//26
f 13//27 21//27 22//27 14//27
f 15//28 23//28 24//28 16//28
f 21//29 37//29 38//29 22//29
f 24//30 40//30 33//30 17//30
f 34//31 47//31 43//31 35//31
f 18//32 34//32 35//32 19//32
f 9//33 17//33 18//33 10//33
f 26//34 10//34 11//34 27//34
f 25//35 9//35 10//35 26//35
f 7//36 31//36 32//36 8//36
f 5//37 6//37 7//37 8//37 1//37 2//37 3//37 4//37
f 56//38 52//38 112//38 110//38
f 60//39 105//39 107//39 61//39
f 62//40 109//40 111//40 63//40
f 57//41 99//41 103//41 59//41
f 64//42 113//42 101//42 58//42
f 37//43 41//43 42//43 38//43
f 39//44 48//44 45//44 40//44
f 35//45 43//45 44//45 36//45
f 33//46 46//46 47//46 34//46
f 43//47 47//47 55//47 50//47
f 45//48 48//48 56//48 51//48
f 48//49 42//49 52//49 56//49
f 47//50 46//50 54//50 55//50
f 41//51 44//51 53//51 49//51
f 46//52 45//52 51//52 54//52
f 44//53 43//53 50//53 53//53
f 42//54 41//54 49//54 52//54
f 54//55 51//55 108//55 106//55
f 50//56 55//56 104//56 102//56
f 52//57 49//57 100//57 112//57
f 51//58 56//58 110//58 108//58
f 55//59 54//59 106//59 104//59
f 53//60 50//60 102//60 98//60
f 87//61 77//61 65//61
f 88//62 87//62 65//62 66//62
f 89//63 88//63 66//63 67//63
f 66//64 65//64 68//64 69//64
f 67//65 66//65 69//65 70//65
f 65//66 77//66 68//66
f 69//67 68//67 71//67 72//67
f 70//68 69//68 72//68 73//68
f 68//69 77//69 71//69
f 71//70 77//70 74//70
f 72//71 71//71 74//71 75//71
f 73//72 72//72 75//72 76//72
f 76//73 75//73 79//73 80//73
f 74//74 77//74 78//74
f 75//75 74//75 78//75 79//75
f 80//76 79//76 82//76 83//76
f 78//77 77//77 81//77
f 79//78 78//78 81//78 82//78
f 83//79 82//79 85//79 86//79
f 81//80 77//80 84//80
f 82//81 81//81 84//81 85//81
f 86//82 85//82 88//82 89//82
f 84//83 77//83 87//83
f 85//84 84//84 114//84 115//84
f 70//85 73//85 92//85 91//85
f 76//86 80//86 94//86 93//86
f 80//87 83//87 95//87 94//87
f 89//88 67//88 90//88 97//88
f 83//89 86//89 96//89 95//89
f 67//90 70//90 91//90 90//90
f 73//91 76//91 93//91 92//91
f 86//92 89//92 97//92 96//92
f 58//93 93//93 94//93 64//93
f 64//94 94//94 95//94 63//94
f 63//95 95//95 96//95 62//95
f 62//96 96//96 97//96 61//96
f 61//97 97//97 90//97 60//97
f 60//98 90//98 91//98 59//98
f 59//99 91//99 92//99 57//99
f 57//100 92//100 93//100 58//100
f 99//101 101//101 100//101 98//101
f 103//102 99//102 98//102 102//102
f 105//103 103//103 102//103 104//103
f 58//104 101//104 99//104 57//104
f 107//105 105//105 104//105 106//105
f 63//106 111//106 113//106 64//106
f 109//107 107//107 106//107 108//107
f 61//108 107//108 109//108 62//108
f 111//109 109//109 108//109 110//109
f 59//110 103//110 105//110 60//110
f 113//111 111//111 110//111 112//111
f 101//112 113//112 112//112 100//112
f 49//113 53//113 98//113 100//113
f 115//114 114//114 116//114 117//114
f 84//84 87//84 116//84 114//84
f 87//84 88//84 117//84 116//84
f 88//84 85//84 115//84 117//84
